<?xml version="1.0" standalone="no"?>
<!DOCTYPE svg PUBLIC "-//W3C//DTD SVG 1.1//EN" "http://www.w3.org/Graphics/SVG/1.1/DTD/svg11.dtd">
<svg xmlns="http://www.w3.org/2000/svg" width="188.74563598632812" height="147" preserveAspectRatio="xMidYMid meet" viewBox="0 0.000003928820660803467 188.74563598632812 147" overflow="visible"><defs id="SvgjsDefs1002"/><g id="SvgjsG1008" transform="scale(0.9904788110970785)" opacity="1"><g id="SvgjsG1009" class="wkNY9gbKQg" transform="translate(41.98378114473804, -5.327420097873406) scale(1.065911152022758)" light-content="false" non-strokable="false" fill="#ffffff"><path d="M47.871 75.906a100.335 100.335 0 0 1-10.344 2.648.351.351 0 0 0-.285.344v6.399a.897.897 0 0 1-1.789 0V79.35a.36.36 0 0 0-.125-.27.358.358 0 0 0-.285-.077 65.622 65.622 0 0 1-11.957.964.335.335 0 0 0-.254.098.34.34 0 0 0-.106.25v7.586c0 3.777 2.836 7.098 6.574 7.098h39.848c3.735 0 6.57-3.32 6.57-7.094V72.312a.35.35 0 0 0-.7-.043l-.768 6.508h-.004a.893.893 0 0 1-.488.703l-4.899 2.832-.003-.004a.891.891 0 0 1-1.329-.625l-1.902-11.285a.346.346 0 0 0-.2-.258.34.34 0 0 0-.323.016l-1.934 1.129a.345.345 0 0 0-.176.3V85.3a.9.9 0 0 1-1.793 0V73.042a.353.353 0 0 0-.527-.3l-7.137 4.175h-.004a3.56 3.56 0 0 1-2.945.301.35.35 0 0 0-.469.332v7.75c-.039.465-.43.82-.894.82s-.856-.355-.899-.82v-9.058a.341.341 0 0 0-.14-.286.344.344 0 0 0-.313-.05zM22.953 79.07c-3.77 0-7.504-.71-11.012-2.09C7.5 75.02 4.867 71.558 5.367 66.8c.793-7.484 8.8-15.14 15-19.855a.355.355 0 0 1 .37-.035c.274.137.255.684.06.832-4.747 3.613-9.481 8.11-12.259 12.871-2.082 3.563-3.3 7.75-1.324 11.281 2.328 4.152 8.02 5.668 12.945 6.117h-.004a27.24 27.24 0 0 0 2.82.16c7.868.192 16.478-1.53 24.114-3.898.398-.125.898.656.347.828-7.761 2.41-16.59 4.156-24.484 3.965zm51.148-51.62c.172.132.277.269.457.265 1.484-.02 14.383-.602 18.23 6.27 2.488 4.437-.086 9.827-2.922 13.71a41.544 41.544 0 0 1-3.922 4.567c-.355.363.328.941.649.613 3.886-3.95 8.168-9.613 8.101-15.062-.066-5.219-4.066-8.266-8.808-9.719a36.887 36.887 0 0 0-11.578-1.273.352.352 0 0 0-.207.629zM23.07 77.284a.354.354 0 0 1-.344-.351V34.602c0-3.774 2.84-7.094 6.57-7.094l39.853-.004c3.734 0 6.57 3.324 6.57 7.094v18.629a.336.336 0 0 1-.168.297l-5.29 3.214a.347.347 0 0 1-.331.02l-6.73-3.086a.34.34 0 0 1-.2-.32V37.21a.904.904 0 0 0-.898-.825.903.903 0 0 0-.895.825v15a.36.36 0 0 1-.164.297.353.353 0 0 1-.336.019l-2.152-.988a.898.898 0 0 0-.871.02l-4.946 2.859a.88.88 0 0 0-.437.691c-.027.29.086.57.305.762l7.574 6.453h-.004c.086.07.133.184.125.293a.367.367 0 0 1-.168.273l-6.309 3.832a.423.423 0 0 1-.492-.03l-3.07-2.337a.336.336 0 0 1-.137-.281V37.21a.904.904 0 0 0-.898-.824.9.9 0 0 0-.895.824v24.965a.363.363 0 0 1-.195.316.363.363 0 0 1-.371-.035l-.653-.5a1.41 1.41 0 0 0-1.582-.101l-4.543 2.625a1.433 1.433 0 0 0-.355 2.184l5.66 6.398a.35.35 0 0 1-.16.57 95.947 95.947 0 0 1-8.469 2.156.346.346 0 0 1-.293-.07.352.352 0 0 1-.129-.274V37.211a.9.9 0 0 0-1.793 0v38.711a.344.344 0 0 1-.293.344 63.354 63.354 0 0 1-12.09 1.02zM77.152 54.64l1.582-.96c1.531-.9 5.68-.454 6.512.886.14.238.277.48.418.723v-.004a.664.664 0 0 1-.243.89l-8.523 4.992a.355.355 0 0 1-.367-.007.366.366 0 0 1-.16-.332.889.889 0 0 0-.356-.903.898.898 0 0 0-.968-.054l-9.668 5.55a.905.905 0 0 0-.442.926l.238 1.414h.004a.352.352 0 0 1-.172.364l-12.379 7.238a1.752 1.752 0 0 1-2.23-.352l-7.848-8.879a.366.366 0 0 1-.086-.293.363.363 0 0 1 .172-.246l3.375-1.949a.348.348 0 0 1 .39.024l5.84 4.445a2.196 2.196 0 0 0 2.5.137zm-22.051 1.016l6.856 5.844a.341.341 0 0 0 .41.03l5.324-3.23a.353.353 0 0 0-.04-.62l-9.312-4.266a.334.334 0 0 0-.32.015l-2.863 1.656a.342.342 0 0 0-.176.27.364.364 0 0 0 .121.3zm11.98 12.613l-.23-1.36a.341.341 0 0 1 .171-.363l6.766-3.883v-.004a.355.355 0 0 1 .367.012.35.35 0 0 1 .156.336l-1.769 14.941a.345.345 0 0 1-.176.266l-2.851 1.648h.003a.365.365 0 0 1-.324.012.365.365 0 0 1-.195-.258zm-25.105-2.79l.008.008-.008-.011zM32.16 25.71h2.582a.35.35 0 0 0 .351-.351V9.971a2.03 2.03 0 0 1 2.02-2.02h24.219a2.032 2.032 0 0 1 2.02 2.02v15.387a.35.35 0 0 0 .35.352h2.583a.35.35 0 0 0 .351-.352V8.85a3.864 3.864 0 0 0-3.851-3.852H35.66a3.864 3.864 0 0 0-3.852 3.852v16.508a.35.35 0 0 0 .352.352z" fill-rule="evenodd"/></g><g id="SvgjsG1010" class="text" transform="translate(95.33999633789062, 147.75306855914368) scale(1)" light-content="false" fill="#ffffff"><path d="M-91.68 -3.27C-89.24 -0.65 -85.76 0.66 -81.24 0.66C-78.88 0.66 -76.56 0.28 -74.28 -0.48C-72 -1.24 -70.16 -2.24 -68.76 -3.48C-68.68 -8.16 -68.48 -12.1 -68.16 -15.3C-69.84 -15.54 -71.26 -15.66 -72.42 -15.66C-73.78 -15.66 -75.04 -15.54 -76.2 -15.3C-75.64 -13.9 -75.32 -10.48 -75.24 -5.04C-76.32 -4.76 -77.5 -4.62 -78.78 -4.62C-81.94 -4.62 -84.27 -5.55 -85.77 -7.41C-87.27 -9.27 -88.02 -12.18 -88.02 -16.14C-88.02 -17.9 -87.72 -19.62 -87.12 -21.3C-86.52 -22.98 -85.71 -24.41 -84.69 -25.59C-83.67 -26.77 -82.56 -27.52 -81.36 -27.84C-80.2 -27.84 -78.66 -27.4 -76.74 -26.52C-74.82 -25.64 -73.04 -24.56 -71.4 -23.28C-70.8 -23.96 -70.25 -25.05 -69.75 -26.55C-69.25 -28.05 -69 -29.38 -69 -30.54C-71.4 -31.5 -74.58 -31.98 -78.54 -31.98C-81.82 -31.98 -84.73 -31.24 -87.27 -29.76C-89.81 -28.28 -91.79 -26.21 -93.21 -23.55C-94.63 -20.89 -95.34 -17.86 -95.34 -14.46C-95.34 -9.62 -94.12 -5.89 -91.68 -3.27Z M-57.93 -0.87C-56.15 0.15 -54.1 0.66 -51.78 0.66C-49.02 0.66 -46.56 0.09 -44.4 -1.05C-42.24 -2.19 -40.56 -3.79 -39.36 -5.85C-38.16 -7.91 -37.56 -10.26 -37.56 -12.9C-37.56 -15.3 -38.06 -17.42 -39.06 -19.26C-40.06 -21.1 -41.48 -22.53 -43.32 -23.55C-45.16 -24.57 -47.28 -25.08 -49.68 -25.08C-52.36 -25.08 -54.75 -24.51 -56.85 -23.37C-58.95 -22.23 -60.59 -20.63 -61.77 -18.57C-62.95 -16.51 -63.54 -14.16 -63.54 -11.52C-63.54 -9.12 -63.05 -7 -62.07 -5.16C-61.09 -3.32 -59.71 -1.89 -57.93 -0.87ZM-45.99 -4.71C-47.13 -3.33 -48.7 -2.64 -50.7 -2.64C-52.5 -2.64 -53.97 -3.42 -55.11 -4.98C-56.25 -6.54 -56.82 -8.62 -56.82 -11.22C-56.82 -13.66 -56.2 -15.59 -54.96 -17.01C-53.72 -18.43 -52.06 -19.14 -49.98 -19.14C-48.22 -18.62 -46.83 -17.57 -45.81 -15.99C-44.79 -14.41 -44.28 -12.56 -44.28 -10.44C-44.28 -8 -44.85 -6.09 -45.99 -4.71Z M-29.88 -3.27C-27.44 -0.65 -23.96 0.66 -19.44 0.66C-17.08 0.66 -14.76 0.28 -12.48 -0.48C-10.2 -1.24 -8.36 -2.24 -6.96 -3.48C-6.88 -8.16 -6.68 -12.1 -6.36 -15.3C-8.04 -15.54 -9.46 -15.66 -10.62 -15.66C-11.98 -15.66 -13.24 -15.54 -14.4 -15.3C-13.84 -13.9 -13.52 -10.48 -13.44 -5.04C-14.52 -4.76 -15.7 -4.62 -16.98 -4.62C-20.14 -4.62 -22.47 -5.55 -23.97 -7.41C-25.47 -9.27 -26.22 -12.18 -26.22 -16.14C-26.22 -17.9 -25.92 -19.62 -25.32 -21.3C-24.72 -22.98 -23.91 -24.41 -22.89 -25.59C-21.87 -26.77 -20.76 -27.52 -19.56 -27.84C-18.4 -27.84 -16.86 -27.4 -14.94 -26.52C-13.02 -25.64 -11.24 -24.56 -9.6 -23.28C-9 -23.96 -8.45 -25.05 -7.95 -26.55C-7.45 -28.05 -7.2 -29.38 -7.2 -30.54C-9.6 -31.5 -12.78 -31.98 -16.74 -31.98C-20.02 -31.98 -22.93 -31.24 -25.47 -29.76C-28.01 -28.28 -29.99 -26.21 -31.41 -23.55C-32.83 -20.89 -33.54 -17.86 -33.54 -14.46C-33.54 -9.62 -32.32 -5.89 -29.88 -3.27Z M0.96 -0.54C1.56 0.18 2.6 0.54 4.08 0.54C4.8 0.54 5.61 0.36 6.51 0C7.41 -0.36 8.24 -0.9 9 -1.62C8.32 -2.34 7.83 -3.04 7.53 -3.72C7.23 -4.4 7.01 -5.32 6.87 -6.48C6.73 -7.64 6.66 -9.32 6.66 -11.52C6.66 -21.48 6.9 -28.58 7.38 -32.82C5.82 -32.82 4.4 -32.73 3.12 -32.55C1.84 -32.37 0.52 -32.06 -0.84 -31.62C-0.08 -28.86 0.3 -24.26 0.3 -17.82C0.3 -15.86 0.26 -13.36 0.18 -10.32C0.1 -7.6 0.06 -5.62 0.06 -4.38C0.06 -2.54 0.36 -1.26 0.96 -0.54Z M18.33 -0.87C20.11 0.15 22.16 0.66 24.48 0.66C27.24 0.66 29.7 0.09 31.86 -1.05C34.02 -2.19 35.7 -3.79 36.9 -5.85C38.1 -7.91 38.7 -10.26 38.7 -12.9C38.7 -15.3 38.2 -17.42 37.2 -19.26C36.2 -21.1 34.78 -22.53 32.94 -23.55C31.1 -24.57 28.98 -25.08 26.58 -25.08C23.9 -25.08 21.51 -24.51 19.41 -23.37C17.31 -22.23 15.67 -20.63 14.49 -18.57C13.31 -16.51 12.72 -14.16 12.72 -11.52C12.72 -9.12 13.21 -7 14.19 -5.16C15.17 -3.32 16.55 -1.89 18.33 -0.87ZM30.27 -4.71C29.13 -3.33 27.56 -2.64 25.56 -2.64C23.76 -2.64 22.29 -3.42 21.15 -4.98C20.01 -6.54 19.44 -8.62 19.44 -11.22C19.44 -13.66 20.06 -15.59 21.3 -17.01C22.54 -18.43 24.2 -19.14 26.28 -19.14C28.04 -18.62 29.43 -17.57 30.45 -15.99C31.47 -14.41 31.98 -12.56 31.98 -10.44C31.98 -8 31.41 -6.09 30.27 -4.71Z M51.15 -0.24C52.49 0.28 53.94 0.54 55.5 0.54C59.38 0.54 62.37 -0.6 64.47 -2.88C66.57 -5.16 67.62 -8.44 67.62 -12.72C67.62 -16.48 66.78 -19.4 65.1 -21.48C63.42 -23.56 61.06 -24.6 58.02 -24.6C55.34 -24.6 52.84 -23.72 50.52 -21.96C50.64 -27.04 50.84 -30.66 51.12 -32.82C48.04 -32.82 45.3 -32.42 42.9 -31.62C43.58 -29.42 43.92 -25.54 43.92 -19.98C43.92 -17.06 43.86 -13.54 43.74 -9.42C43.62 -5.3 43.48 -2.26 43.32 -0.3C44.6 -0.1 45.58 0 46.26 0L47.7 -2.4C48.66 -1.48 49.81 -0.76 51.15 -0.24ZM59.04 -4.83C58 -3.57 56.5 -2.94 54.54 -2.94C53.06 -2.94 51.78 -3.54 50.7 -4.74C50.42 -6.1 50.28 -8.36 50.28 -11.52L50.4 -17.82C52.2 -18.78 54.04 -19.26 55.92 -19.26C57.44 -18.58 58.6 -17.5 59.4 -16.02C60.2 -14.54 60.6 -12.66 60.6 -10.38C60.6 -7.94 60.08 -6.09 59.04 -4.83Z M74.34 -2.49C76.22 -0.39 78.92 0.66 82.44 0.66C84.72 0.66 86.95 0.17 89.13 -0.81C91.31 -1.79 93.04 -3.08 94.32 -4.68L93.6 -7.44C91.36 -5.92 88.46 -5.16 84.9 -5.16C83.06 -5.16 81.64 -5.57 80.64 -6.39C79.64 -7.21 78.98 -8.5 78.66 -10.26C81.54 -10.3 84.47 -10.51 87.45 -10.89C90.43 -11.27 93.02 -11.72 95.22 -12.24C95.22 -16.48 94.34 -19.68 92.58 -21.84C90.82 -24 88.24 -25.08 84.84 -25.08C82.24 -25.08 79.93 -24.5 77.91 -23.34C75.89 -22.18 74.32 -20.57 73.2 -18.51C72.08 -16.45 71.52 -14.1 71.52 -11.46C71.52 -7.58 72.46 -4.59 74.34 -2.49ZM83.52 -13.86C81.84 -13.46 80.14 -13.16 78.42 -12.96C78.46 -14.88 78.8 -16.62 79.44 -18.18C80.08 -19.74 80.94 -20.86 82.02 -21.54C83.58 -21.54 84.88 -20.93 85.92 -19.71C86.96 -18.49 87.52 -16.98 87.6 -15.18C86.56 -14.7 85.2 -14.26 83.52 -13.86Z"/></g></g></svg>