<svg id="SvgjsSvg1093" width="100%" height="100%" xmlns="http://www.w3.org/2000/svg" version="1.1" xlink="http://www.w3.org/1999/xlink" xmlns:svgjs="http://svgjs.com/svgjs" preserveAspectRatio="xMidYMid meet" viewBox="0 0.0000059539356698223855 257.7756042480469 147" overflow="visible"><defs id="SvgjsDefs1094"></defs><g id="SvgjsG1095" transform="scale(1.0427816062509494)" opacity="1"><g id="SvgjsG1096" class="zeDz-1UdX" transform="translate(81.99930851218173, -3.7484851060231965) scale(0.8320080692024497)" light-content="false" non-strokable="false" fill="#303030"><path d="M79.305 18.379a1.543 1.543 0 1 1 2.156-2.21 43.488 43.488 0 0 1 3.754 4.155 1.545 1.545 0 0 1-1.207 2.504c-.453 0-.906-.199-1.21-.586a40.901 40.901 0 0 0-3.493-3.863zm-8.309-6.23a40.867 40.867 0 0 1 4.356 2.847 1.542 1.542 0 1 0 1.851-2.469 44.124 44.124 0 0 0-4.687-3.066 1.543 1.543 0 0 0-2.102.586 1.538 1.538 0 0 0 .582 2.102zm18.906 23.879a40.18 40.18 0 0 1 1.118 5.078 1.543 1.543 0 1 0 3.05-.465 42.656 42.656 0 0 0-1.203-5.469 1.545 1.545 0 0 0-1.91-1.055 1.539 1.539 0 0 0-1.055 1.91zm-4.148-9.512a40.043 40.043 0 0 1 2.383 4.62 1.547 1.547 0 0 0 2.031.798 1.543 1.543 0 0 0 .797-2.031 43.108 43.108 0 0 0-2.566-4.977 1.54 1.54 0 0 0-2.118-.527 1.54 1.54 0 0 0-.527 2.117zM72.598 81.344a39.7 39.7 0 0 1-4.57 2.473 1.545 1.545 0 1 0 1.289 2.805 43.415 43.415 0 0 0 4.926-2.665 1.544 1.544 0 0 0 .488-2.129 1.554 1.554 0 0 0-2.133-.484zm8.008-6.602a40.803 40.803 0 0 1-3.793 3.559 1.547 1.547 0 0 0-.211 2.172 1.54 1.54 0 0 0 2.171.211 43.995 43.995 0 0 0 4.083-3.832 1.543 1.543 0 0 0-2.25-2.11zM94.555 46.22a1.544 1.544 0 0 0-3.086.07 40.754 40.754 0 0 1-.21 5.2 1.543 1.543 0 0 0 3.07.32 43.7 43.7 0 0 0 .226-5.59zm-2.317 9.254c-.828-.2-1.66.313-1.859 1.14a40.183 40.183 0 0 1-1.535 4.973 1.542 1.542 0 1 0 2.883 1.102 43.296 43.296 0 0 0 1.656-5.356 1.543 1.543 0 0 0-1.145-1.859zm-3.472 10.215a1.54 1.54 0 0 0-2.09.625 40.645 40.645 0 0 1-2.762 4.41 1.543 1.543 0 1 0 2.508 1.801 43.298 43.298 0 0 0 2.973-4.746 1.547 1.547 0 0 0-.63-2.09zM59.383 26.59c4.148 2.89 3.558 7.11 3.21 9.621-.078.54-.171 1.25-.16 1.64 1.23.02 2.04-.171 2.7-.327.77-.192 1.648-.399 2.511.14.871.54 1.211 1.59 1.489 2.61.129.48.3.691.379.718.289.079 1.27-.261 2.441-1.269.852-.75 1.762-1.078 2.719-.98 1.73.171 3.07 1.75 4.3 3.34.02.019.122.05.262.058h.04c.85 0 2.39-.738 3.66-1.988-2.56-11.441-11.211-20.61-22.352-23.93-1.68 3.054-4.008 8.406-1.2 10.367zm23.84 26.22c-4.172-1.75-5.68-1.47-5.86-1.29-.39.691-.11 1.36.61 2.71.761 1.43 2.18 4.079-.711 6.2-1.14.828-1.871 2.629-1.79 4.371.032.7.22 1.84 1.04 2.79a31.94 31.94 0 0 0 6.71-14.782zm-51.61-2.79c-.07-.531-.648-1.219-1.32-1.34-1-.18-1.789 1.012-2.18 1.739-.75 1.43-2 2.351-3.609 2.66-1.53.289-3.351-.02-5.101-.809a32.103 32.103 0 0 0 2.55 8.469c.149-.05.301-.11.45-.172 3.148-1.27 6.62-3.512 10.379-6.71-.856-1.337-1.04-2.817-1.168-3.837zM12.474 60.2c-5.73-4.578-5.102-18.211 1.09-28.141a7.71 7.71 0 0 1-2.18-1.2l-.469-.37c-3.21 5.148-5.172 11.359-5.45 17.27-.3 6.61 1.552 12.02 5.079 14.852 1.45 1.16 3.61 2.23 6.61 2.23.988 0 2.058-.12 3.238-.379a29.008 29.008 0 0 1-1.43-2.879c-2.606.446-4.777-.015-6.488-1.382zm48.07 20.918c0 4.129-4.7 9.379-8.13 13.211-.359.398-.71.79-1.05 1.172-.328-.371-.68-.762-1.04-1.16-3.44-3.84-8.14-9.078-8.14-13.22 0-5.07 4.121-9.19 9.18-9.19 5.063 0 9.18 4.117 9.18 9.187zm-5.957.004a3.223 3.223 0 1 0-6.446 0c0 1.766 1.442 3.207 3.223 3.207s3.223-1.441 3.223-3.207zM45.793 70.2c-2.77-1.98-5.2-4.219-4.16-6.988.62-1.66.238-2.309-.399-3.391-.43-.719-.898-1.531-1.05-2.621 0-.059-.012-.11-.02-.149-.051-.011-.11-.011-.16-.011-.649-.032-1.63-.07-2.98-.399a8.95 8.95 0 0 1-1.923-.699h-.012c-4.558 3.93-8.43 6.281-11.69 7.57a32.16 32.16 0 0 0 16.27 13.88 12.31 12.31 0 0 1 6.124-7.192zm29.46-14.52c-.73-1.371-1.84-3.441-.577-5.672 1.199-2.14 4.14-2.262 8.949-.371a32.484 32.484 0 0 0-.11-5.98c-1.41.98-2.941 1.558-4.25 1.558h-.109c-1.09-.031-2.02-.469-2.629-1.262-1.328-1.73-1.91-2.12-2.16-2.148-.04 0-.18.05-.379.23-1.11.97-3.29 2.52-5.36 1.899-.828-.25-1.94-.95-2.468-2.86a8.131 8.131 0 0 0-.172-.59c-.05.012-.09.02-.129.032-.75.18-1.871.449-3.512.422-1-.032-1.77-.352-2.3-.98-.942-1.09-.73-2.59-.512-4.173.398-2.851.488-4.988-1.922-6.672-1.602-1.12-3.309-3.39-2.36-7.84.372-1.738 1.122-3.69 2.239-5.808a31.66 31.66 0 0 0-6.13-.59h-.171l-2.68 1.422c.852 3.871.301 6.648-1.64 8.281-1.711 1.43-2.63 2.781-2.578 3.801.03.61.43 1.18 1.18 1.7 1.19.808 1.921 1.988 2.109 3.41.25 1.828-.48 4-1.89 5.66-.161.191-.18.3-.18.308.058.512 1.53 1.59 2.41 2.23 2.011 1.47 4.75 3.481 3.59 6.329-.57 1.379-.34 1.828-.262 1.969.558 1.11 3.672 1.98 5.96 2.539 4.173 1.011 7.872 4.07 9.423 7.781 1.058 2.531.98 5.031-.22 7.04-.94 1.577-1.3 4.808-1.03 9.03a31.947 31.947 0 0 0 9.07-6.48c-1.238-1.281-1.98-3.012-2.07-4.95-.13-2.808 1.07-5.57 3.05-7.011.641-.465.73-.535-.18-2.254zm-18.77-.152c-4.14-1.012-6.921-2.059-7.98-4.13-.851-1.66-.32-3.398.149-4.55.25-.621-1.43-1.852-2.551-2.66-1.692-1.239-3.442-2.52-3.66-4.36-.07-.648.02-1.629.898-2.672.84-.988 1.309-2.3 1.18-3.261-.07-.551-.328-.95-.79-1.27-1.577-1.078-2.448-2.5-2.519-4.101-.101-2.059 1.14-4.192 3.68-6.32 1.039-.872 1.039-2.739.762-4.41L24.8 28.761h-.012a32.196 32.196 0 0 0-5.781 18.45c0 .398.011.808.031 1.28 1.602 1.18 3.54 1.809 4.879 1.551.68-.129 1.148-.469 1.46-1.07 1.88-3.57 4.45-3.52 5.462-3.34 1.941.36 3.59 2.07 3.828 3.988.11.852.25 1.551.488 2.11.41.949 1.121 1.53 2.512 1.879.02.011.05.011.078.02 1.058.26 1.789.288 2.379.32 1.46.058 2.789.32 3.11 2.84.07.468.32.898.64 1.44.75 1.27 1.781 3.012.64 6.06-.398 1.058 2.942 3.327 4.73 4.55.071.05.15.102.22.148a11.58 11.58 0 0 1 1.89-.148c4.73 0 8.84 2.691 10.891 6.621-.148-3.55.121-7.36 1.512-9.7.691-1.147.7-2.671.031-4.269-1.176-2.785-4.105-5.183-7.304-5.964zM28.454 13.68l6.761-3.97-17.19-2.46-1.81.539 12.23 5.89zM17.992 28.86l41.75-21.961c.218-.11.351-.211.422-.27-.172-.25-.75-.8-2.122-1.328-2.761-1.05-7.011-1.27-10.27.64l-32.21 18.84c-.38.22-.829.27-1.25.141l-6-1.93-1.329.489 6.309 4.949c1.39 1.09 3.14 1.25 4.7.43z"></path></g><g id="SvgjsG1097" class="text" transform="translate(121.58999633789062, 140.24911575108754) scale(1)" light-content="false" fill="#0d0d0d"><path d="M-91.14 -39C-93.24 -39.32 -95.35 -39.48 -97.47 -39.48C-105.27 -39.48 -111.24 -37.41 -115.38 -33.27C-119.52 -29.13 -121.59 -23.2 -121.59 -15.48C-121.59 -10.36 -120.08 -6.38 -117.06 -3.54C-114.04 -0.7 -109.71 0.72 -104.07 0.72C-99.83 0.72 -95.33 -0.16 -90.57 -1.92L-89.25 -12.54L-88.41 -17.94L-99.45 -17.16L-100.05 -10.5L-100.29 -8.52C-101.17 -8.36 -101.89 -8.28 -102.45 -8.28C-104.85 -8.28 -106.55 -8.81 -107.55 -9.87C-108.55 -10.93 -109.05 -12.84 -109.05 -15.6C-109.05 -19.52 -108.7 -22.52 -108 -24.6C-107.3 -26.68 -106.33 -28.09 -105.09 -28.83C-103.85 -29.57 -102.25 -29.94 -100.29 -29.94C-98.57 -29.94 -97.01 -29.72 -95.61 -29.28C-94.21 -28.84 -92.57 -28.12 -90.69 -27.12L-89.73 -27.12L-85.89 -37.68C-87.29 -38.24 -89.04 -38.68 -91.14 -39Z M-52.14 -35.31C-55 -38.13 -59.05 -39.54 -64.29 -39.54C-68.77 -39.54 -72.62 -38.56 -75.84 -36.6C-79.06 -34.64 -81.5 -31.93 -83.16 -28.47C-84.82 -25.01 -85.65 -21.04 -85.65 -16.56C-85.65 -10.76 -84.21 -6.43 -81.33 -3.57C-78.45 -0.71 -74.39 0.72 -69.15 0.72C-64.67 0.72 -60.83 -0.27 -57.63 -2.25C-54.43 -4.23 -52 -6.97 -50.34 -10.47C-48.68 -13.97 -47.85 -17.96 -47.85 -22.44C-47.85 -28.2 -49.28 -32.49 -52.14 -35.31ZM-69.66 -28.92C-68.6 -29.64 -67.27 -30 -65.67 -30C-64.23 -30 -63.14 -29.74 -62.4 -29.22C-61.66 -28.7 -61.15 -27.85 -60.87 -26.67C-60.59 -25.49 -60.45 -23.84 -60.45 -21.72C-60.45 -18.04 -60.76 -15.21 -61.38 -13.23C-62 -11.25 -62.85 -9.9 -63.93 -9.18C-65.01 -8.46 -66.33 -8.1 -67.89 -8.1C-69.33 -8.1 -70.42 -8.36 -71.16 -8.88C-71.9 -9.4 -72.41 -10.24 -72.69 -11.4C-72.97 -12.56 -73.11 -14.22 -73.11 -16.38C-73.11 -20.06 -72.8 -22.89 -72.18 -24.87C-71.56 -26.85 -70.72 -28.2 -69.66 -28.92Z M-15.72 -39C-17.82 -39.32 -19.93 -39.48 -22.05 -39.48C-29.85 -39.48 -35.82 -37.41 -39.96 -33.27C-44.1 -29.13 -46.17 -23.2 -46.17 -15.48C-46.17 -10.36 -44.66 -6.38 -41.64 -3.54C-38.62 -0.7 -34.29 0.72 -28.65 0.72C-24.41 0.72 -19.91 -0.16 -15.15 -1.92L-13.83 -12.54L-12.99 -17.94L-24.03 -17.16L-24.63 -10.5L-24.87 -8.52C-25.75 -8.36 -26.47 -8.28 -27.03 -8.28C-29.43 -8.28 -31.13 -8.81 -32.13 -9.87C-33.13 -10.93 -33.63 -12.84 -33.63 -15.6C-33.63 -19.52 -33.28 -22.52 -32.58 -24.6C-31.88 -26.68 -30.91 -28.09 -29.67 -28.83C-28.43 -29.57 -26.83 -29.94 -24.87 -29.94C-23.15 -29.94 -21.59 -29.72 -20.19 -29.28C-18.79 -28.84 -17.15 -28.12 -15.27 -27.12L-14.31 -27.12L-10.47 -37.68C-11.87 -38.24 -13.62 -38.68 -15.72 -39Z M14.73 -8.94L14.19 -9.78L2.73 -9.78L2.97 -12.6L6.81 -38.82L-5.37 -38.82L-8.13 -11.4L-10.11 0L12.99 0Z M48.96 -35.31C46.1 -38.13 42.05 -39.54 36.81 -39.54C32.33 -39.54 28.48 -38.56 25.26 -36.6C22.04 -34.64 19.6 -31.93 17.94 -28.47C16.28 -25.01 15.45 -21.04 15.45 -16.56C15.45 -10.76 16.89 -6.43 19.77 -3.57C22.65 -0.71 26.71 0.72 31.95 0.72C36.43 0.72 40.27 -0.27 43.47 -2.25C46.67 -4.23 49.1 -6.97 50.76 -10.47C52.42 -13.97 53.25 -17.96 53.25 -22.44C53.25 -28.2 51.82 -32.49 48.96 -35.31ZM31.44 -28.92C32.5 -29.64 33.83 -30 35.43 -30C36.87 -30 37.96 -29.74 38.7 -29.22C39.44 -28.7 39.95 -27.85 40.23 -26.67C40.51 -25.49 40.65 -23.84 40.65 -21.72C40.65 -18.04 40.34 -15.21 39.72 -13.23C39.1 -11.25 38.25 -9.9 37.17 -9.18C36.09 -8.46 34.77 -8.1 33.21 -8.1C31.77 -8.1 30.68 -8.36 29.94 -8.88C29.2 -9.4 28.69 -10.24 28.41 -11.4C28.13 -12.56 27.99 -14.22 27.99 -16.38C27.99 -20.06 28.3 -22.89 28.92 -24.87C29.54 -26.85 30.38 -28.2 31.44 -28.92Z M87.48 -16.74C86.54 -17.98 84.93 -19.06 82.65 -19.98C84.97 -20.98 86.73 -22.36 87.93 -24.12C89.13 -25.88 89.73 -27.78 89.73 -29.82C89.73 -32.78 88.52 -35.03 86.1 -36.57C83.68 -38.11 80.39 -38.88 76.23 -38.88L59.55 -38.82L56.79 -11.4L54.81 0C61.25 0.28 65.61 0.42 67.89 0.42C75.17 0.42 80.49 -0.6 83.85 -2.64C87.21 -4.68 88.89 -7.72 88.89 -11.76C88.89 -13.84 88.42 -15.5 87.48 -16.74ZM77.37 -27.6C77.37 -25.16 76.05 -23.56 73.41 -22.8L68.91 -22.98L70.11 -30.96L71.13 -30.96C72.81 -30.96 74.09 -30.86 74.97 -30.66C75.85 -30.46 76.47 -30.12 76.83 -29.64C77.19 -29.16 77.37 -28.48 77.37 -27.6ZM75.15 -8.67C74.07 -7.85 72.61 -7.44 70.77 -7.44C70.25 -7.44 68.99 -7.52 66.99 -7.68L67.41 -12.6L67.77 -15.24L73.71 -15.36C74.79 -14.96 75.57 -14.52 76.05 -14.04C76.53 -13.56 76.77 -12.88 76.77 -12C76.77 -10.6 76.23 -9.49 75.15 -8.67Z M108.09 -29.64L114.27 -29.64L123.75 -29.28L125.61 -37.98L125.07 -38.82L97.29 -38.82L94.47 -11.4L92.49 0L119.79 0L121.59 -8.7L121.05 -9.54L111.03 -9.18L105.27 -9.18L105.57 -12.6L105.93 -14.88L111.33 -14.88L118.23 -14.7L120.03 -23.46L119.49 -24.3L113.19 -24.12L107.31 -24.12Z"></path></g></g></svg>