<svg xmlns="http://www.w3.org/2000/svg" width="100%" height="100%" preserveAspectRatio="xMidYMid meet" viewBox="0 -7.027760773326008e-8 196.0401611328125 147.00001525878906" overflow="visible"><defs id="SvgjsDefs1078"></defs><g id="SvgjsG1079" transform="scale(0.5275000485777487)" opacity="1"><g id="SvgjsG1080" class="afqUeitqY" transform="translate(85.09946356331741, -2.0191480785160527) scale(2.0144454050370966)" light-content="false" non-strokable="false" fill="#ffffff"><path d="M96.121 46.82c0 1.527-.082 3.07-.238 4.586a1.543 1.543 0 0 1-1.531 1.383c-.055 0-.11-.004-.165-.008a1.544 1.544 0 0 1-1.375-1.695 40.754 40.754 0 0 0 .211-5.2 1.544 1.544 0 0 1 3.086-.07c.008.328.012.664.012 1.004zM72.555 11.742a40.867 40.867 0 0 1 4.355 2.848 1.542 1.542 0 1 0 1.852-2.47 44.124 44.124 0 0 0-4.687-3.066 1.543 1.543 0 0 0-2.102.586 1.54 1.54 0 0 0 .582 2.102zm11.793 10.09c.305.383.754.586 1.21.586.337 0 .677-.11.958-.336.668-.527.781-1.5.25-2.168a43.952 43.952 0 0 0-3.754-4.156c-.61-.594-1.59-.582-2.184.027s-.582 1.59.028 2.184a40.312 40.312 0 0 1 3.492 3.863zm2.96 4.277a40.043 40.043 0 0 1 2.384 4.621 1.547 1.547 0 0 0 2.031.797 1.543 1.543 0 0 0 .797-2.03 43.108 43.108 0 0 0-2.567-4.978 1.544 1.544 0 0 0-2.645 1.59zm4.153 9.508a40.18 40.18 0 0 1 1.117 5.078 1.543 1.543 0 1 0 3.051-.465 43.33 43.33 0 0 0-1.203-5.468 1.542 1.542 0 1 0-2.965.856zm-17.309 45.32a39.7 39.7 0 0 1-4.57 2.473 1.545 1.545 0 1 0 1.289 2.805 43.415 43.415 0 0 0 4.926-2.665 1.544 1.544 0 0 0 .488-2.128 1.553 1.553 0 0 0-2.133-.485zm8.012-6.605a40.803 40.803 0 0 1-3.793 3.558 1.544 1.544 0 0 0 1.96 2.383 43.508 43.508 0 0 0 4.083-3.832 1.543 1.543 0 0 0-2.25-2.11zm8.156-9.051a1.54 1.54 0 0 0-2.09.625 40.645 40.645 0 0 1-2.761 4.41 1.543 1.543 0 1 0 2.507 1.8 43.298 43.298 0 0 0 2.973-4.745 1.546 1.546 0 0 0-.629-2.09zm3.477-10.22a1.545 1.545 0 0 0-1.86 1.141 40.183 40.183 0 0 1-1.535 4.973 1.542 1.542 0 1 0 2.883 1.102 43.296 43.296 0 0 0 1.656-5.356 1.548 1.548 0 0 0-1.144-1.86zM65.172 80.075c.011.21.015.418.015.629 0 5.316-5.152 11.07-8.914 15.27-.8.894-1.558 1.742-2.164 2.469-.293.355-.726.558-1.187.558s-.895-.203-1.188-.558a91.247 91.247 0 0 0-2.156-2.457c-3.766-4.204-8.926-9.961-8.926-15.281 0-.211.004-.422.016-.63-6.528-2.402-12.148-6.624-16.305-12.276a36.392 36.392 0 0 1-2.414-3.75 14.728 14.728 0 0 1-3.243.382c-3 0-5.152-1.066-6.605-2.23-3.535-2.828-5.387-8.238-5.078-14.844.273-5.91 2.242-12.13 5.445-17.281l-8-6.273a1.545 1.545 0 0 1 .418-2.664L9.3 19.497c.324-.121.68-.129 1.012-.024l5.852 1.883 10.625-6.215-13.945-6.699a1.546 1.546 0 0 1-.872-1.511 1.535 1.535 0 0 1 1.098-1.356l5.942-1.777c.214-.063.44-.082.66-.051l21.37 3.059 6.731-3.938C52.563.063 58.86.74 62.347 2.798c1.649.972 2.54 2.23 2.508 3.539-.02.824-.402 1.996-2.117 2.894l-4.781 2.512c17.156 2.453 30.39 17.246 30.39 35.074 0 7.61-2.378 14.863-6.874 20.977-4.157 5.656-9.774 9.883-16.301 12.281zm19.613-27.676c-4.176-1.754-5.684-1.477-5.86-1.285-.39.691-.113 1.355.606 2.707.761 1.425 2.18 4.082-.715 6.199-1.133.828-1.871 2.629-1.79 4.375.032.695.227 1.836 1.056 2.781a32.311 32.311 0 0 0 6.703-14.777zM60.937 26.175c4.152 2.898 3.562 7.11 3.214 9.625-.074.539-.171 1.242-.164 1.636 1.23.024 2.043-.171 2.7-.332.777-.187 1.656-.398 2.515.141.867.543 1.211 1.586 1.489 2.606.132.484.296.695.378.718.297.09 1.278-.25 2.438-1.265.852-.742 1.766-1.07 2.719-.977 1.738.172 3.078 1.746 4.304 3.34.02.027.118.055.262.059.852.02 2.406-.723 3.692-1.985-2.563-11.44-11.207-20.613-22.344-23.93-1.672 3.051-4.012 8.399-1.204 10.363zM52.92 14.468h-.152l-2.703 1.422c.851 3.867.304 6.652-1.64 8.277-1.716 1.434-2.63 2.785-2.579 3.809.031.609.426 1.18 1.18 1.691 1.191.812 1.922 1.992 2.11 3.41.245 1.828-.478 4-1.888 5.664-.16.192-.187.293-.183.309.062.512 1.535 1.59 2.414 2.23 2.004 1.465 4.75 3.473 3.586 6.32-.567 1.387-.34 1.833-.262 1.981.563 1.106 3.676 1.98 5.965 2.54 4.164 1.015 7.863 4.066 9.418 7.773 1.062 2.527.984 5.03-.219 7.05-.941 1.579-1.3 4.813-1.031 9.036a32.21 32.21 0 0 0 9.078-6.493c-1.246-1.28-1.984-3.007-2.074-4.953-.13-2.808 1.066-5.562 3.05-7.011.633-.465.731-.535-.187-2.254-.73-1.371-1.836-3.438-.574-5.672 1.203-2.133 4.14-2.262 8.941-.375a32.559 32.559 0 0 0-.105-5.969c-1.41.977-2.938 1.559-4.246 1.559-.04 0-.075 0-.114-.004-1.093-.027-2.027-.477-2.632-1.266-1.328-1.726-1.907-2.12-2.16-2.144-.044-.004-.18.054-.383.23-1.118.977-3.297 2.52-5.36 1.899-.836-.254-1.941-.953-2.465-2.86a8.029 8.029 0 0 0-.18-.59c-.042.012-.09.02-.128.032-.742.18-1.863.445-3.512.414-.996-.02-1.77-.348-2.3-.973-.934-1.094-.723-2.594-.505-4.18.395-2.843.489-4.984-1.925-6.672-1.602-1.12-3.313-3.39-2.36-7.832.371-1.746 1.121-3.695 2.23-5.82a32.623 32.623 0 0 0-6.105-.578zm-22.926-1.203l6.766-3.957-17.188-2.461-1.801.539zM14.85 28.019c1.387 1.09 3.14 1.25 4.7.43l41.753-21.95a2.01 2.01 0 0 0 .418-.277c-.172-.246-.742-.8-2.113-1.324-2.762-1.063-7.012-1.277-10.273.633L17.12 24.37a1.55 1.55 0 0 1-1.254.136L9.87 22.574l-1.332.496zm5.66 33.156a35.146 35.146 0 0 1-3.02-13.816c-.003-.184-.003-.364-.003-.54a35.23 35.23 0 0 1 3.672-15.73l-.176.094a7.442 7.442 0 0 1-3.473.871 7.267 7.267 0 0 1-2.39-.406C8.928 41.582 8.303 55.21 14.026 59.79c1.71 1.367 3.883 1.828 6.484 1.387zm13.832-7.723c-.86-1.34-1.047-2.828-1.176-3.848-.066-.531-.644-1.215-1.316-1.336-.996-.18-1.789 1.016-2.172 1.743-.758 1.433-2.008 2.351-3.613 2.66-1.535.293-3.356-.016-5.098-.809a32.277 32.277 0 0 0 2.551 8.473c.148-.055.293-.11.441-.168 3.153-1.27 6.625-3.52 10.383-6.715zm6.887 23.535a12.314 12.314 0 0 1 6.105-7.2c-2.761-1.976-5.18-4.214-4.14-6.984.621-1.66.234-2.312-.406-3.398-.422-.715-.899-1.523-1.043-2.617-.008-.055-.016-.102-.02-.149-.055-.004-.11-.004-.16-.007a14.084 14.084 0 0 1-2.984-.403 8.529 8.529 0 0 1-1.915-.699c-4.562 3.93-8.44 6.285-11.71 7.578a32.274 32.274 0 0 0 16.272 13.88zM62.1 80.702c0-5.063-4.117-9.184-9.18-9.184s-9.183 4.117-9.183 9.184c0 4.14 4.703 9.39 8.14 13.223.36.398.711.789 1.043 1.168.336-.383.692-.774 1.051-1.18 3.43-3.828 8.129-9.07 8.129-13.21zm1.703-5.649c-.14-3.547.125-7.351 1.52-9.691.687-1.152.695-2.672.023-4.273-1.172-2.79-4.105-5.192-7.305-5.97-4.144-1.01-6.925-2.058-7.984-4.136-.848-1.66-.316-3.39.156-4.55.25-.614-1.433-1.848-2.55-2.66-1.692-1.235-3.438-2.513-3.66-4.36-.079-.645.015-1.633.894-2.672.836-.988 1.312-2.297 1.183-3.258-.074-.55-.324-.957-.793-1.273-1.57-1.075-2.441-2.489-2.52-4.09-.1-2.067 1.138-4.196 3.684-6.324 1.047-.875 1.04-2.747.77-4.41L26.358 28.353c-3.785 5.434-5.785 11.81-5.785 18.461 0 .157.004.313.004.47.004.253.011.519.023.804 1.606 1.18 3.54 1.808 4.879 1.55.684-.132 1.148-.472 1.465-1.07 1.875-3.566 4.441-3.523 5.453-3.34 1.941.352 3.586 2.067 3.828 3.989.11.86.246 1.555.492 2.117a101.1 101.1 0 0 0 5.36-5.379 1.54 1.54 0 0 1 2.18-.078 1.54 1.54 0 0 1 .077 2.18 108.652 108.652 0 0 1-5.105 5.152c.027.008.047.016.074.02 1.059.257 1.793.289 2.387.316 1.45.062 2.781.328 3.105 2.84.063.469.317.902.641 1.449.75 1.27 1.777 3.012.637 6.05-.403 1.075 2.945 3.34 4.742 4.56l.2.136a12.167 12.167 0 0 1 1.898-.148c4.734 0 8.843 2.691 10.89 6.62zm-5.496 5.649c0 2.969-2.414 5.386-5.387 5.386s-5.39-2.414-5.39-5.386a5.396 5.396 0 0 1 5.39-5.387c2.97.004 5.387 2.418 5.387 5.387zm-3.086 0a2.3 2.3 0 0 0-4.602 0 2.302 2.302 0 0 0 2.305 2.297 2.296 2.296 0 0 0 2.297-2.297z"></path></g><g id="SvgjsG1081" class="text" transform="translate(185.42999267578125, 278.67295844038625) scale(1)" light-content="false" fill="#ffffff"><path d="M-142.23 -34.32C-142.23 -36.76 -143.1 -38.85 -144.84 -40.59C-146.58 -42.33 -148.69 -43.2 -151.17 -43.2L-176.55 -43.2C-179.03 -43.2 -181.13 -42.34 -182.85 -40.62C-184.57 -38.9 -185.43 -36.8 -185.43 -34.32L-185.43 -8.88C-185.43 -6.4 -184.57 -4.3 -182.85 -2.58C-181.13 -0.86 -179.03 0 -176.55 0L-151.17 0C-148.69 0 -146.58 -0.87 -144.84 -2.61C-143.1 -4.35 -142.23 -6.44 -142.23 -8.88L-142.23 -25.2L-161.01 -25.2L-161.01 -15.84L-151.65 -15.84L-151.65 -9.36L-176.13 -9.36L-176.13 -33.84L-151.65 -33.84L-151.65 -30.24L-142.23 -30.24Z M-120.87 -43.2C-123.35 -43.2 -125.45 -42.34 -127.17 -40.62C-128.89 -38.9 -129.75 -36.8 -129.75 -34.32L-129.75 -8.88C-129.75 -6.4 -128.89 -4.3 -127.17 -2.58C-125.45 -0.86 -123.35 0 -120.87 0L-95.43 0C-92.99 0 -90.9 -0.87 -89.16 -2.61C-87.42 -4.35 -86.55 -6.44 -86.55 -8.88L-86.55 -34.32C-86.55 -36.76 -87.42 -38.85 -89.16 -40.59C-90.9 -42.33 -92.99 -43.2 -95.43 -43.2ZM-120.45 -33.84L-95.97 -33.84L-95.97 -9.36L-120.45 -9.36Z M-30.75 -34.32C-30.75 -36.76 -31.62 -38.85 -33.36 -40.59C-35.1 -42.33 -37.21 -43.2 -39.69 -43.2L-65.07 -43.2C-67.55 -43.2 -69.65 -42.34 -71.37 -40.62C-73.09 -38.9 -73.95 -36.8 -73.95 -34.32L-73.95 -8.88C-73.95 -6.4 -73.09 -4.3 -71.37 -2.58C-69.65 -0.86 -67.55 0 -65.07 0L-39.69 0C-37.21 0 -35.1 -0.87 -33.36 -2.61C-31.62 -4.35 -30.75 -6.44 -30.75 -8.88L-30.75 -25.2L-49.53 -25.2L-49.53 -15.84L-40.17 -15.84L-40.17 -9.36L-64.65 -9.36L-64.65 -33.84L-40.17 -33.84L-40.17 -30.24L-30.75 -30.24Z M-18.09 0L25.11 0L25.11 -9.36L-8.79 -9.36L-8.79 -43.26L-18.09 -43.26Z M43.35 -43.2C40.87 -43.2 38.77 -42.34 37.05 -40.62C35.33 -38.9 34.47 -36.8 34.47 -34.32L34.47 -8.88C34.47 -6.4 35.33 -4.3 37.05 -2.58C38.77 -0.86 40.87 0 43.35 0L68.79 0C71.23 0 73.32 -0.87 75.06 -2.61C76.8 -4.35 77.67 -6.44 77.67 -8.88L77.67 -34.32C77.67 -36.76 76.8 -38.85 75.06 -40.59C73.32 -42.33 71.23 -43.2 68.79 -43.2ZM43.77 -33.84L68.25 -33.84L68.25 -9.36L43.77 -9.36Z M131.97 -34.32C131.97 -36.76 131.1 -38.85 129.36 -40.59C127.62 -42.33 125.53 -43.2 123.09 -43.2L90.45 -43.2L90.45 0L124.71 0C127.19 0 129.3 -0.87 131.04 -2.61C132.78 -4.35 133.65 -6.44 133.65 -8.88L133.65 -17.82C133.65 -19.82 132.95 -21.7 131.55 -23.46C131.83 -24.18 131.97 -25.1 131.97 -26.22ZM99.75 -17.28L124.23 -17.28L124.23 -9.36L99.75 -9.36ZM99.75 -33.84L122.55 -33.84L122.55 -26.64L99.75 -26.64Z M186.21 -43.2L146.31 -43.2L146.31 0L186.21 0L186.21 -9.36L155.73 -9.36L155.73 -16.92L180.27 -16.92L180.27 -26.28L155.73 -26.28L155.73 -33.84L186.21 -33.84Z"></path></g></g></svg>